<svg width="1037" height="1199" viewBox="0 0 1037 1199" fill="none" xmlns="http://www.w3.org/2000/svg">
<path opacity="0.78" fill-rule="evenodd" clip-rule="evenodd" d="M446.635 416C427.387 416.17 408.6 425.051 390.579 433.571C381.513 437.858 372.641 442.052 364 445C285.5 497.5 257 559 253.669 656.623C253.669 720 282 787.5 310.799 841.922C415.143 989.502 544.103 1076.73 702.128 1102.23L794.893 1109.53C797.042 1109.7 799.208 1109.82 801.388 1109.9C840.113 1103.18 873.439 1091.1 896.645 1076.16C920.848 1060.58 927.784 1046.45 929.107 1036.45C931.984 1014.68 927.596 997.966 909.388 972.591C893.169 949.988 871.006 927.072 839.72 894.724C828.799 883.432 816.766 870.991 803.486 857.013L797.741 850.966L793.603 843.723C787.432 832.923 779.297 818.433 772.786 806.788C769.513 800.935 766.619 795.745 764.543 792.017C763.505 790.152 762.67 788.652 762.094 787.616L761.256 786.109L761.211 786.028L761.194 785.999L758.397 780.962L754.578 770.186C741.242 732.546 736.394 718.864 733.726 708.989C732.701 705.196 731.624 700.37 730.957 697.378C730.759 696.49 730.597 695.764 730.484 695.274C729.519 691.128 727.784 684.064 723.998 670.344C722.011 663.141 719.94 656.112 717.789 649.253L780.903 573.5C791.291 597.893 800.297 624.086 808 652C823.868 709.5 808 665 839 752.5C839.037 752.566 859.011 788.519 871 809.5C966 909.5 1026.5 958.5 1015 1045.5C1005.28 1119 919 1164 824 1179C818.266 1179 812.584 1178.77 806.963 1178.33L807.5 1179C582 1175 404 1070.5 269.246 877.931C236 815 209.963 738.128 202.5 663.5C190.5 543.5 232.5 424 355.305 366.11C390.063 353.737 427.495 347 466.5 347C591.603 355.815 680.844 408.768 741.081 499L678.5 557.177C662.322 528.969 643.839 505.503 623.183 486.415C580.717 447.172 524.222 421.909 446.635 416Z" fill="url(#paint0_linear_3_2)"/>
<path d="M348 730.5L397.5 690.5L460 746L514.5 801.5C514.5 801.5 603.5 666 676 595.5C744.5 510.5 901.5 414.5 901.5 414.5C901.5 414.5 760.5 547 691 650C621.5 753 520 930.5 520 930.5L446 826.5L348 730.5Z" fill="url(#paint1_linear_3_2)"/>
<path d="M460.449 260.048C460.449 260.048 359.042 344.429 238.327 322.605C117.611 300.781 23.2986 181.016 23.2986 181.016C23.2986 181.016 124.705 96.6351 245.421 118.459C366.136 140.283 460.449 260.048 460.449 260.048Z" fill="url(#paint2_linear_3_2)"/>
<defs>
<linearGradient id="paint0_linear_3_2" x1="608.466" y1="347" x2="608.466" y2="1179" gradientUnits="userSpaceOnUse">
<stop stop-color="#FB5E01"/>
<stop offset="1" stop-color="#FEC31D"/>
</linearGradient>
<linearGradient id="paint1_linear_3_2" x1="1181.5" y1="825" x2="-3.50002" y2="852" gradientUnits="userSpaceOnUse">
<stop stop-color="#CB570A"/>
<stop offset="1" stop-color="#FDC31A"/>
</linearGradient>
<linearGradient id="paint2_linear_3_2" x1="223.5" y1="240.5" x2="242" y2="121.5" gradientUnits="userSpaceOnUse">
<stop stop-color="#285D36"/>
<stop offset="1" stop-color="#53C371"/>
</linearGradient>
</defs>
</svg>
